<?xml version="1.0" encoding="UTF-8" standalone="no"?>
<!-- Created with Inkscape (http://www.inkscape.org/) -->

<svg
   xmlns:dc="http://purl.org/dc/elements/1.1/"
   xmlns:cc="http://creativecommons.org/ns#"
   xmlns:rdf="http://www.w3.org/1999/02/22-rdf-syntax-ns#"
   xmlns:svg="http://www.w3.org/2000/svg"
   xmlns="http://www.w3.org/2000/svg"
   xmlns:sodipodi="http://sodipodi.sourceforge.net/DTD/sodipodi-0.dtd"
   xmlns:inkscape="http://www.inkscape.org/namespaces/inkscape"
   width="208.17729"
   height="48"
   viewBox="0 0 55.080242 12.700001"
   version="1.1"
   id="svg8"
   inkscape:version="0.92.4 (5da689c313, 2019-01-14)"
   sodipodi:docname="HomeSeer_Full_Logo.svg">
  <defs
     id="defs2" />
  <sodipodi:namedview
     id="base"
     pagecolor="#ffffff"
     bordercolor="#666666"
     borderopacity="1.0"
     inkscape:pageopacity="0.0"
     inkscape:pageshadow="2"
     inkscape:zoom="3.959798"
     inkscape:cx="-75.39626"
     inkscape:cy="-9.8982964"
     inkscape:document-units="mm"
     inkscape:current-layer="layer1"
     showgrid="false"
     inkscape:window-width="3840"
     inkscape:window-height="2066"
     inkscape:window-x="-11"
     inkscape:window-y="-11"
     inkscape:window-maximized="1"
     units="px"
     fit-margin-top="8"
     fit-margin-left="0"
     fit-margin-right="0"
     fit-margin-bottom="8"
     inkscape:pagecheckerboard="true" />
  <metadata
     id="metadata5">
    <rdf:RDF>
      <cc:Work
         rdf:about="">
        <dc:format>image/svg+xml</dc:format>
        <dc:type
           rdf:resource="http://purl.org/dc/dcmitype/StillImage" />
        <dc:title></dc:title>
      </cc:Work>
    </rdf:RDF>
  </metadata>
  <g
     inkscape:label="Layer 1"
     inkscape:groupmode="layer"
     id="layer1"
     transform="translate(-150.89577,3.4335426)">
    <path
       style="fill:#ffffff;fill-opacity:1;stroke-width:0.02325791"
       d="m 161.12929,7.1251998 c -0.41708,-0.047225 -0.9963,-0.215936 -1.35158,-0.393681 -0.50808,-0.2541875 -0.8303,-0.5755167 -1.05699,-1.0540597 -0.3253,-0.6867186 -0.31994,-1.5430022 0.0138,-2.2012233 0.10953,-0.2160248 0.16765,-0.2948105 0.36599,-0.4960911 0.70703,-0.7175343 2.16138,-1.0262863 3.56381,-0.7565768 1.09305,0.2102108 1.83921,0.7840793 2.11261,1.6247943 0.0658,0.2023293 0.12025,0.5292089 0.11967,0.7182278 -6.7e-4,0.2684534 -0.0837,0.751881 -0.1627,0.9498107 -0.25051,0.6273678 -0.74968,1.0818716 -1.52302,1.3867776 -0.50026,0.1972365 -1.42726,0.2961105 -2.08158,0.2220215 z m 0.9652,-1.0688158 c 0.10233,-0.02451 0.26978,-0.086068 0.37213,-0.1367934 0.39945,-0.1980045 0.61738,-0.4641029 0.73423,-0.8965358 0.0694,-0.2570161 0.0553,-0.6416159 -0.0328,-0.8911683 -0.13167,-0.3729657 -0.34618,-0.6308336 -0.64754,-0.7784156 -0.24728,-0.1211035 -0.4102,-0.1584328 -0.75163,-0.1722205 -0.26082,-0.010533 -0.32951,-0.00524 -0.50005,0.038475 -0.42453,0.1088463 -0.83502,0.415936 -0.99574,0.7449261 -0.095,0.1945094 -0.16727,0.4807748 -0.16675,0.6607563 8.9e-4,0.4517207 0.24737,0.9095156 0.63918,1.189109 0.4024,0.2871434 0.83563,0.3648215 1.34897,0.2418672 z m 16.11773,0.9785528 c -1.77683,-0.09989 -2.61096,-0.6245584 -2.94627,-1.8531942 -0.0727,-0.266567 -0.0724,-0.7919353 5.1e-4,-1.1008007 0.1637,-0.6919719 0.36309,-1.01267 0.81788,-1.3154358 0.26519,-0.1765384 0.49815,-0.2822973 0.83696,-0.3799471 0.51663,-0.1489057 0.4996,-0.1476479 2.14554,-0.1585638 l 1.50595,-0.00999 v 0.4880927 0.4880927 l -1.31989,0.0107 c -1.47448,0.011953 -1.55984,0.01963 -1.85825,0.1671098 -0.25579,0.1264181 -0.38603,0.3259003 -0.41905,0.6418041 l -0.0144,0.137909 h 1.8058 1.8058 v 0.500045 0.5000451 h -1.8055 -1.80551 l 0.0163,0.1435208 c 0.0348,0.307611 0.14749,0.4912634 0.36783,0.5995126 0.28524,0.1401242 0.35561,0.1460762 1.86053,0.1573559 l 1.3664,0.010241 v 0.4866309 0.4866299 h -0.2753 c -0.15142,0 -0.60408,0.00444 -1.0059,0.00992 -0.40184,0.00546 -0.88761,0.0011 -1.07949,-0.00968 z M 150.89579,3.7434153 V 0.452134 l 0.85474,0.0061 0.85473,0.0061 0.006,1.3315151 0.006,1.331516 h 1.59277 1.59279 l 0.006,-1.331516 0.006,-1.3315151 0.84311,-0.006109 0.84309,-0.0061 V 3.7437 7.0352752 l -0.84309,-0.0061 -0.84311,-0.0061 -0.006,-1.3664028 -0.006,-1.3664024 h -1.59298 -1.59298 v 1.3722164 1.3722173 h -0.86055 -0.86054 z m 14.79205,0.8833854 V 2.2182848 l 3.40146,0.00925 c 3.65742,0.00994 3.50616,0.00505 4.02944,0.1304512 0.48785,0.1169183 0.82042,0.363117 1.00789,0.7461268 0.17713,0.3618899 0.17314,0.3134197 0.18331,2.2269449 l 0.009,1.7036426 h -0.77934 -0.77934 l -0.007,-1.5989814 c -0.008,-1.7470204 -0.006,-1.7201798 -0.14521,-1.9025981 -0.16078,-0.2107761 -0.46513,-0.2610887 -1.49494,-0.2471234 l -0.30817,0.00417 v 1.8722639 1.8722625 h -0.82566 -0.82565 V 5.1483145 c 0,-1.7105753 -0.004,-1.8850638 -0.0368,-1.8722624 -0.0203,0.00776 -0.44405,0.014117 -0.94181,0.014117 H 167.27 l -0.006,1.8664484 -0.006,1.8664473 -0.78495,0.00612 -0.78496,0.00612 z m 15.76887,1.8276361 v -0.58026 l 2.42464,-0.00861 c 2.20324,-0.00783 2.44056,-0.012313 2.59907,-0.049116 0.36919,-0.085718 0.59832,-0.2462972 0.6632,-0.4647727 0.0414,-0.1393514 0.0428,-0.2056293 0.008,-0.368343 -0.0642,-0.302429 -0.23727,-0.4677103 -0.59532,-0.568225 -0.1138,-0.031945 -0.35772,-0.040596 -1.58806,-0.056329 -2.0177,-0.025803 -2.39412,-0.069394 -2.95375,-0.3420625 -0.1841,-0.089889 -0.25332,-0.1404851 -0.41908,-0.3066227 -0.23369,-0.2342174 -0.33969,-0.4265134 -0.43181,-0.78342 -0.054,-0.2091305 -0.0583,-0.2596102 -0.048,-0.566816 0.007,-0.2104377 0.0259,-0.3897099 0.05,-0.4767875 0.0525,-0.1890136 0.22033,-0.5363246 0.31686,-0.6558969 0.24498,-0.30352522 0.7652,-0.55643361 1.37552,-0.66872911 0.44266,-0.0814448 0.67243,-0.0885948 3.1863,-0.0991424 l 2.50604,-0.010515 V 1.0311628 1.6135404 l -2.35487,0.00822 c -2.10344,0.00734 -2.37203,0.012373 -2.51563,0.047123 -0.3416,0.082663 -0.59633,0.2535518 -0.72296,0.4850152 -0.0579,0.1057484 -0.0683,0.1508941 -0.069,0.2989893 -8.9e-4,0.2344706 0.0509,0.3644647 0.19964,0.4981473 0.13206,0.1187424 0.27651,0.1792756 0.57056,0.2391171 0.18665,0.037983 0.32793,0.041195 1.51985,0.034543 1.33221,-0.00744 1.88261,0.011336 2.25511,0.076906 0.7329,0.1290122 1.1395,0.4136891 1.36902,0.9584991 0.22076,0.5240455 0.20021,1.2481321 -0.0494,1.7412451 -0.11817,0.2334166 -0.20754,0.3456955 -0.3713,0.4664115 -0.43619,0.3215436 -1.02264,0.4891021 -1.90095,0.5431226 -0.21508,0.01323 -1.40349,0.02365 -2.70374,0.02371 l -2.31997,8.8e-5 z m 10.74514,0.564695 c -1.18013,-0.083872 -1.98621,-0.5192589 -2.38272,-1.2869664 -0.17696,-0.3426364 -0.22522,-0.5495033 -0.23877,-1.0232599 -0.0109,-0.3817536 -0.008,-0.4243351 0.0515,-0.6861086 0.0774,-0.3425413 0.14847,-0.5240243 0.28986,-0.7405194 0.13952,-0.213632 0.29659,-0.3729702 0.50095,-0.5081682 0.36376,-0.2406476 0.76673,-0.4003726 1.23267,-0.488585 0.23846,-0.045144 0.35816,-0.049126 1.76179,-0.058604 l 1.50595,-0.010169 v 0.4901951 0.4901945 l -1.14545,6.95e-5 c -1.27375,8.78e-5 -1.58868,0.01798 -1.86775,0.1061079 -0.3574,0.1128731 -0.55253,0.3434732 -0.58418,0.6903966 l -0.0143,0.1569912 h 1.80585 1.80585 v 0.500045 0.5000451 h -1.8058 -1.80581 l 0.0146,0.1453614 c 0.0196,0.1958544 0.13419,0.4210835 0.26456,0.5203201 0.11216,0.08538 0.29518,0.1591482 0.48918,0.197172 0.0854,0.016746 0.62288,0.030108 1.48849,0.037005 l 1.35478,0.010797 v 0.4866176 0.4866179 l -1.30826,-0.00405 c -0.71955,-0.00225 -1.35536,-0.00741 -1.41293,-0.0115 z m 5.69952,-0.01033 c -0.80092,-0.071092 -1.4528,-0.3495895 -1.8904,-0.8076157 -0.50141,-0.5248224 -0.71106,-1.299562 -0.55488,-2.0504725 0.15382,-0.7396158 0.34848,-1.0657684 0.82558,-1.3832115 0.33045,-0.2198776 0.71115,-0.3692896 1.22443,-0.4805496 0.23556,-0.051058 0.28789,-0.052876 1.76035,-0.061143 l 1.51758,-0.00852 V 2.7072196 3.197145 l -1.14546,1.94e-5 c -1.45224,2.38e-5 -1.72765,0.022431 -2.03218,0.1653341 -0.25363,0.1190036 -0.40151,0.3399193 -0.42232,0.6308558 l -0.0113,0.1573656 h 1.80607 1.80608 l -0.006,0.4942302 -0.006,0.4942311 -1.80003,0.00596 -1.80004,0.00596 0.0136,0.1619225 c 0.025,0.298178 0.14709,0.483448 0.39062,0.5927336 0.28669,0.1286615 0.35847,0.1343321 1.8411,0.145445 l 1.36641,0.010241 v 0.4866299 0.48663 l -1.33152,-0.0032 c -0.73233,-0.00175 -1.43036,-0.01197 -1.55116,-0.022694 z m 3.7432,-2.3828532 v -2.408744 l 1.62224,0.00943 c 1.56584,0.0091 1.62947,0.011175 1.83048,0.059716 0.39264,0.094827 0.60118,0.230309 0.72224,0.4692249 0.10744,0.212019 0.13159,0.3683887 0.14448,0.9357998 l 0.012,0.5291175 h -0.747 -0.747 v -0.320728 c 0,-0.3402348 -0.0381,-0.5593432 -0.11145,-0.6403652 -0.0988,-0.1091942 -0.15373,-0.119632 -0.6735,-0.1280373 l -0.49423,-0.00799 v 1.955663 1.9556635 h -0.77914 -0.77914 z"
       id="path826"
       inkscape:connector-curvature="0"
       sodipodi:nodetypes="cssssscssccccsscccscsccccscscccscccccccccccscccsccccccccccccccccccccccccccccccsccscccccccccccscscccccccccccccsscsccscscccsscccccssscsccccsccsccsccccscccccccccccccccccccccccccccscccccccccccsccccccccsccscccscccccccc" />
  </g>
  <g
     inkscape:groupmode="layer"
     id="layer2"
     inkscape:label="Layer 2"
     style="display:inline"
     transform="translate(-285.75766,93.529375)">
    <path
       inkscape:connector-curvature="0"
       id="path837"
       d="m 294.88642,-88.406446 c 0.0512,-0.02378 1.73808,-0.709916 3.7487,-1.524749 l 3.65566,-1.481513 5.69183,1.344134 c 3.1305,0.739275 5.67705,1.347028 5.65898,1.350564 -0.018,0.0036 -2.51847,-0.323528 -5.55644,-0.726808 -3.03799,-0.40328 -5.54797,-0.733238 -5.57773,-0.733239 -0.0649,-10e-7 -6.8609,1.617587 -7.22203,1.719007 -0.13875,0.03897 -0.30621,0.07647 -0.37213,0.08334 l -0.11987,0.0125 z m 18.81033,-0.297157 c 0.008,-0.0077 0.0278,-0.0085 0.0446,-0.0019 0.0185,0.0075 0.0131,0.01293 -0.014,0.01404 -0.0245,9.78e-4 -0.0383,-0.0044 -0.0306,-0.01221 z"
       style="fill:#ffffff;fill-opacity:1;stroke-width:0.02325791"
       sodipodi:nodetypes="cscscscscccccccc" />
  </g>
</svg>
